<svg width="76" height="66" viewBox="0 0 76 66" fill="none" xmlns="http://www.w3.org/2000/svg">
<path d="M34.813 17.6844V16.3211C30.487 16.3211 26.3363 14.5965 23.2752 11.5359C20.2142 8.47536 18.5002 4.32528 18.5002 0H17.1367C17.1367 2.14622 16.7151 4.26506 15.8937 6.24702C15.0723 8.22899 13.8731 10.0303 12.3562 11.5414C10.8394 13.058 9.03782 14.257 7.06102 15.0783C5.07873 15.8995 2.95407 16.3211 0.812988 16.3211V17.6844C5.13897 17.6844 9.28424 19.409 12.3398 22.4696C15.3954 25.5301 17.1148 29.6747 17.1203 34H18.4838C18.4893 29.6747 20.2087 25.5301 23.2697 22.475C26.3253 19.42 30.4761 17.6953 34.7966 17.6899H34.813V17.6844Z" fill="black"/>
<path d="M42.1714 3.81306C43.823 2.21205 46.3851 2.21205 48.0366 3.81306L75.439 30.3902V61.7867C75.4389 64.1123 73.5507 65.9996 71.2251 65.9996H51.8452V49.1304C51.8452 45.4061 48.8284 42.3894 45.104 42.3892C41.3795 42.3892 38.3628 45.406 38.3628 49.1304V65.9996H18.9819C16.6563 65.9996 14.7691 64.1123 14.769 61.7867V42.8697C16.1356 43.1223 17.5431 43.2554 18.981 43.2554C19.2634 43.2554 19.5447 43.247 19.8247 43.2369V60.9605H33.3071V49.147C33.3071 42.6419 38.5988 37.3502 45.104 37.3502C51.6091 37.3503 56.9009 42.642 56.9009 49.147V60.9439H70.3833V32.5133L45.104 8.00935L41.2935 11.7047C40.7336 9.97825 39.9875 8.3388 39.0786 6.81111L42.1714 3.81306Z" fill="black"/>
<rect x="14.813" y="38" width="5" height="22" rx="2.5" fill="black"/>
<rect x="43.9229" y="2.19434" width="5.18611" height="12.3" rx="2.59306" transform="rotate(46.5242 43.9229 2.19434)" fill="black"/>
</svg>
